<?xml version="1.0" encoding="utf-8"?>
<!-- Generator: Adobe Illustrator 19.1.0, SVG Export Plug-In . SVG Version: 6.00 Build 0)  -->
<svg version="1.1" id="Layer_1" xmlns="http://www.w3.org/2000/svg" xmlns:xlink="http://www.w3.org/1999/xlink" x="0px" y="0px"
	 viewBox="0 0 720 720" style="enable-background:new 0 0 720 720;" xml:space="preserve">
<path d="M416.2,341.6h-81.7l163.4,302.3H600L484.6,430.5C552.2,403.3,600,337.1,600,259.9c0-101.4-82.5-183.8-183.8-183.8h-83.1
	c-112.6,0-204.3,91.6-204.3,204.3c0,12.5,1,24.8,3.1,36.8c4,23.5,11.8,45.7,23.1,65.8l84.4,158.8h-66.3L120,643.9h173.6h40.9h61.3
	l-85.3-160.5c-0.9-2.6-6-11.7-13.2-24.9L263,394.1c-20.9-41.7-36.8-68.8-36.8-113.7c0-56.3,50.5-102.1,106.9-102.1h83.1
	c45.1,0,81.7,36.7,81.7,81.7S461.2,341.6,416.2,341.6z"/>
</svg>
